<svg width="214" height="95" viewBox="0 0 214 95" fill="none" xmlns="http://www.w3.org/2000/svg">
<path d="M0 82.4739V39.4387H10.311V56.3295H27.0261V39.4387H37.3372V82.4739H27.0261V64.9365H10.311V82.4739H0Z" fill="#EF9D52"/>
<path d="M54.1731 50.9146H44.6274V82.4737H54.1731V50.9146Z" fill="#EF9D52"/>
<path d="M74.1507 82.4739C71.4521 82.4739 69.116 81.8677 67.1021 80.6959C65.0883 79.524 63.5577 77.9481 62.4299 75.9681C61.3425 73.9881 60.7786 71.806 60.7786 69.3815V39.4387H71.0896V70.1088C71.0896 71.1191 71.4521 72.008 72.1368 72.7354C72.8215 73.4627 73.6673 73.8264 74.634 73.8264H85.952V82.5143H74.1507V82.4739Z" fill="#286F8C"/>
<path d="M95.4977 47.3586C93.9672 47.3586 92.6783 46.7929 91.5908 45.7018C90.5033 44.6108 89.9395 43.2773 89.9395 41.7822C89.9395 40.2063 90.5033 38.8728 91.5908 37.7817C92.6783 36.6907 94.0075 36.125 95.4977 36.125C97.0686 36.125 98.3977 36.6907 99.4852 37.7817C100.573 38.8728 101.137 40.2063 101.137 41.7822C101.137 43.3177 100.573 44.6108 99.4852 45.7018C98.3574 46.7929 97.0283 47.3586 95.4977 47.3586ZM90.745 50.9145H100.291V82.4737H90.745V50.9145Z" fill="#286F8C"/>
<path d="M107.299 82.4737V64.3303C107.299 61.7037 107.943 59.3196 109.192 57.1779C110.441 55.0363 112.253 53.3391 114.629 52.0865C116.966 50.8338 119.785 50.2277 123.007 50.2277C126.27 50.2277 129.049 50.8338 131.385 52.0865C133.681 53.3391 135.453 55.0363 136.701 57.1779C137.95 59.3196 138.554 61.7037 138.554 64.3303V82.4737H129.008V64.5727C129.008 63.4817 128.727 62.4715 128.203 61.5421C127.679 60.6531 126.954 59.8853 126.028 59.3196C125.102 58.7539 124.054 58.471 122.886 58.471C121.759 58.471 120.711 58.7539 119.745 59.3196C118.818 59.8853 118.053 60.6127 117.529 61.5825C117.006 62.5119 116.724 63.5221 116.724 64.6131V82.5141H107.299V82.4737Z" fill="#286F8C"/>
<path d="M145.603 82.4737V37.5797H155.068V62.8351H159.297L166.467 50.9145H177.06L168.601 64.0877C171.058 65.098 172.951 66.6739 174.321 68.7751C175.65 70.8764 176.335 73.3413 176.335 76.1699V82.4332H166.91V76.1699C166.91 75.0385 166.628 73.9879 166.064 73.0989C165.5 72.2099 164.775 71.4825 163.849 70.9168C162.962 70.3511 161.915 70.0682 160.787 70.0682H155.068V82.4332H145.603V82.4737Z" fill="#286F8C"/>
<path d="M193.412 94.9595V82.6753C191.076 82.15 189.103 81.2206 187.491 79.9275C185.88 78.6345 184.632 77.0181 183.786 75.1593C182.94 73.3005 182.497 71.2801 182.497 69.098V50.9546H192.002V68.8556C192.002 69.9062 192.284 70.9164 192.808 71.8862C193.332 72.8156 194.057 73.5834 194.983 74.1491C195.909 74.7148 196.957 74.9977 198.125 74.9977C199.252 74.9977 200.3 74.7148 201.226 74.1491C202.152 73.5834 202.877 72.8156 203.401 71.8862C203.925 70.9568 204.207 69.987 204.207 68.896V50.995H213.712V69.1385C213.712 71.2801 213.269 73.2601 212.423 75.1189C211.577 76.9777 210.329 78.5537 208.758 79.8871C207.147 81.1802 205.213 82.1096 202.918 82.6349V94.9999H193.412V94.9595Z" fill="#286F8C"/>
<mask id="mask0_174_4579" style="mask-type:luminance" maskUnits="userSpaceOnUse" x="20" y="0" width="47" height="46">
<path d="M43.8218 6.90987C43.8218 7.83927 44.0232 8.72826 44.3454 9.53643L34.7191 17.0524C33.1483 15.5573 31.0539 14.6279 28.7178 14.6279C23.9248 14.6279 20.0179 18.5475 20.0179 23.3562C20.0179 28.1648 23.9248 32.0844 28.7178 32.0844C33.5108 32.0844 37.4177 28.1648 37.4177 23.3562C37.4177 21.7802 37.015 20.3255 36.29 19.0729L45.7552 11.6781C46.5204 12.4863 47.4468 13.0924 48.5343 13.4561V33.4179C47.1246 33.5391 45.876 34.1049 44.8288 35.1959C43.6607 36.4081 43.0566 37.782 43.0566 39.3984C43.0566 41.0147 43.6607 42.3886 44.8288 43.6009C45.9968 44.8131 47.4065 45.3788 49.0579 45.3788C50.669 45.3788 52.0384 44.7727 53.2065 43.6009C54.3745 42.3886 54.9787 41.0147 54.9787 39.3984C54.9787 38.3882 54.737 37.4588 54.2537 36.5698L61.3425 29.4579C61.7453 29.6195 62.2286 29.7407 62.7119 29.7407C64.605 29.7407 66.1758 28.2052 66.1758 26.2656C66.1758 24.3664 64.6453 22.7904 62.7119 22.7904C60.8189 22.7904 59.2481 24.326 59.2481 26.2656C59.2481 26.7505 59.3286 27.195 59.53 27.6395L52.562 34.6302C52.0787 34.2665 51.5954 33.9836 51.0718 33.7816V13.8197C54.6967 13.6177 57.5967 10.6275 57.5967 6.90987C57.5967 3.11146 54.4953 0 50.7093 0C46.9232 0 43.8218 3.07105 43.8218 6.90987Z" fill="white"/>
</mask>
<g mask="url(#mask0_174_4579)">
<path d="M2.1347 8.72829L57.2745 -18.2646L83.9784 36.6506L28.8789 63.6436L2.1347 8.72829Z" fill="url(#paint0_linear_174_4579)"/>
</g>
<defs>
<linearGradient id="paint0_linear_174_4579" x1="22.753" y1="32.6796" x2="76.7786" y2="6.37543" gradientUnits="userSpaceOnUse">
<stop stop-color="#EF9D52"/>
<stop offset="1" stop-color="#EF5959"/>
</linearGradient>
</defs>
</svg>
