<svg width="175" height="158" viewBox="0 0 175 158" fill="none" xmlns="http://www.w3.org/2000/svg">
<path d="M93.4705 13.3757C85.0516 6.28218 74.7494 1.78498 63.8175 0.431344C52.8856 -0.922296 41.7953 0.925997 31.8963 5.75131C21.9972 10.5766 13.7161 18.1709 8.06064 27.61C2.40519 37.0492 -0.38074 47.9262 0.0418395 58.9176C0.464419 69.9089 4.07729 80.5406 10.4408 89.519C16.8044 98.4975 25.6442 105.435 35.8846 109.489C46.1251 113.542 57.3246 114.536 68.1204 112.349C78.9162 110.163 88.8428 104.89 96.6922 97.173L166.394 155.901C167.455 156.791 168.827 157.225 170.208 157.108C171.589 156.991 172.867 156.331 173.762 155.274C174.657 154.217 175.096 152.849 174.982 151.469C174.869 150.09 174.212 148.812 173.156 147.915L173.148 147.908L103.446 89.1807C111.543 77.5766 115.009 63.3713 113.163 49.3488C111.318 35.3262 104.295 22.4972 93.4705 13.3757ZM88.9771 83.5256C83.547 89.9515 76.3305 94.6252 68.2403 96.9557C60.15 99.2863 51.5494 99.169 43.5259 96.6187C35.5024 94.0684 28.4164 89.1996 23.1641 82.6281C17.9118 76.0565 14.729 68.0773 14.0182 59.6995C13.3074 51.3217 15.1005 42.9216 19.1708 35.5614C23.2411 28.2012 29.4057 22.2115 36.8852 18.3497C44.3646 14.4879 52.823 12.9275 61.1906 13.8658C69.5582 14.8041 77.4592 18.199 83.8945 23.6211C92.5241 30.8919 97.9076 41.288 98.8607 52.5223C99.8139 63.7565 96.2586 74.9088 88.9771 83.5256Z" fill="#286F8C"/>
</svg>
