<svg width="27" height="13" viewBox="0 0 27 13" fill="none" xmlns="http://www.w3.org/2000/svg">
<path d="M25.7065 7.23763C23.5933 6.12562 21.3875 5.1987 19.1138 4.46727L18.8239 1.2649L7.06614 0L5.57184 4.09316L1.35224 5.6743C1.20124 5.73146 1.0575 5.80621 0.924039 5.89699H0.919474C0.683994 6.05591 0.483429 6.2611 0.330044 6.50002C0.17666 6.73895 0.0736676 7.00659 0.0273673 7.2866C-0.0176902 7.56504 -0.00702659 7.84963 0.0587349 8.12393L0.281757 9.037C0.602821 9.22851 0.932969 9.41113 1.26294 9.58481L1.47268 9.69173C1.95445 9.94115 2.44514 10.1772 2.94912 10.3954C3.0517 10.44 3.16322 10.4845 3.2658 10.5291C3.27473 10.5335 3.27909 10.5335 3.28802 10.538C3.52455 10.636 3.76086 10.7295 4.00174 10.8186C4.79298 11.1203 5.60002 11.379 6.41929 11.5936C8.51028 12.15 10.6651 12.4315 12.8291 12.4309C13.6186 12.4309 14.3992 12.3953 15.1708 12.3195C16.934 12.157 18.6747 11.8061 20.3629 11.2729C20.3673 11.2729 20.3718 11.2684 20.3762 11.2684C21.4426 10.9292 22.4844 10.5169 23.4942 10.0347C23.4985 10.0302 23.5075 10.0302 23.512 10.0258C23.7394 9.91888 23.9581 9.8031 24.1811 9.69173L24.288 9.63825C24.4664 9.54474 24.645 9.4512 24.8234 9.35323C25.2694 9.10823 25.7065 8.84993 26.1391 8.57379C26.2595 8.50248 26.3756 8.4268 26.4961 8.34664C26.6655 8.23528 26.835 8.11947 27 7.99921C26.5852 7.732 26.1526 7.47813 25.7065 7.23763Z" fill="#3F3D56"/>
</svg>
