<svg width="49" height="49" viewBox="0 0 49 49" fill="none" xmlns="http://www.w3.org/2000/svg">
<path d="M47.6367 16.421C46.4653 13.0608 44.5739 9.99615 42.0945 7.4408C39.6151 4.88546 36.6073 2.90092 33.2808 1.62557C29.9544 0.350224 26.3894 -0.185229 22.8344 0.0565507C19.2794 0.298331 15.82 1.31153 12.6975 3.02548C9.57491 4.73943 6.86436 7.11289 4.75483 9.98034C2.64531 12.8478 1.18758 16.1402 0.483306 19.628C-0.220969 23.1158 -0.154835 26.715 0.677084 30.1747C1.509 33.6343 3.08668 36.8711 5.30012 39.6594C5.52 39.936 5.74869 40.2127 5.98189 40.4805C5.9995 40.4981 6.0126 40.5157 6.03021 40.5332C6.60344 41.1928 7.21268 41.8202 7.85518 42.4127C8.02246 42.5664 8.19834 42.7245 8.37419 42.8738C8.70832 43.1724 9.05146 43.4578 9.40769 43.73C9.54834 43.8398 9.68469 43.9496 9.82985 44.055C10.3927 44.481 10.9776 44.8762 11.5801 45.2538L11.6065 45.267C11.7779 45.3724 11.954 45.4778 12.1299 45.5788C12.4464 45.7676 12.7719 45.9476 13.0972 46.1189L13.304 46.2243C13.779 46.4702 14.2628 46.7029 14.7597 46.9181C14.8608 46.962 14.9708 47.0059 15.0719 47.0498C15.0807 47.0542 15.085 47.0542 15.0938 47.0586C15.327 47.1552 15.56 47.2474 15.7975 47.3353C16.5776 47.6328 17.3732 47.8878 18.181 48.0993C20.2425 48.648 22.367 48.9255 24.5005 48.9249C25.2789 48.9249 26.0485 48.8897 26.8093 48.8151C28.5477 48.6549 30.2638 48.3089 31.9283 47.7832C31.9326 47.7832 31.9371 47.7788 31.9414 47.7788C32.9928 47.4443 34.02 47.0379 35.0155 46.5624C35.0198 46.558 35.0285 46.558 35.0331 46.5536C35.2572 46.4482 35.4728 46.3341 35.6927 46.2243L35.7982 46.1716C35.974 46.0794 36.1501 45.9871 36.326 45.8905C36.7657 45.649 37.1967 45.3943 37.6231 45.1221C37.7419 45.0518 37.8563 44.9772 37.9751 44.8981C38.1422 44.7883 38.3092 44.6742 38.472 44.5556C38.6874 44.4063 38.9029 44.2526 39.114 44.0945C39.1799 44.0462 39.2504 43.9979 39.3163 43.9452C43.4364 40.8226 46.4605 36.4776 47.9552 31.533C49.4499 26.5885 49.3384 21.2984 47.6367 16.421ZM38.5072 42.8781C38.3621 42.9923 38.2126 43.1021 38.0629 43.2031C37.9178 43.3129 37.7728 43.4183 37.6232 43.5149C37.4956 43.6071 37.368 43.6949 37.2362 43.7784L37.1967 43.8047C37.0999 43.8706 37.0032 43.932 36.9064 43.9935C36.5413 44.2218 36.1719 44.4414 35.7982 44.6522L35.6794 44.7181C35.5123 44.8103 35.3453 44.8981 35.1782 44.986C35.1561 44.9991 35.1297 45.0079 35.1078 45.0211L35.0814 45.0343C34.8703 45.144 34.6547 45.2494 34.4394 45.3504C33.6078 45.7503 32.7514 46.0964 31.8755 46.3868C31.761 46.4263 31.6468 46.4658 31.5325 46.5009C29.9571 47.0013 28.3323 47.331 26.6863 47.4846C25.965 47.5504 25.2349 47.5855 24.5005 47.5855C22.4826 47.5897 20.4729 47.3269 18.5241 46.8039C17.524 46.5432 16.5437 46.2116 15.5909 45.8115C15.5424 45.7895 15.4896 45.772 15.4412 45.75C15.3886 45.7281 15.3401 45.7105 15.2918 45.6885C15.239 45.6666 15.1906 45.6446 15.1378 45.6183C14.7244 45.4382 14.3154 45.2406 13.9153 45.0343L13.7219 44.9333C13.2336 44.6786 12.7543 44.4063 12.2881 44.1165C12.1517 44.033 12.0111 43.9452 11.8791 43.853C11.8441 43.831 11.8131 43.8091 11.7779 43.7871C11.4657 43.5807 11.1535 43.3656 10.8501 43.1416C10.6435 42.9879 10.4367 42.8342 10.2344 42.6762C9.89579 42.4215 9.57026 42.1492 9.25374 41.8682C9.08668 41.7276 8.92391 41.5739 8.76567 41.429C8.14212 40.8541 7.55185 40.2443 6.99778 39.6023C6.81311 39.3915 6.63274 39.1807 6.46116 38.9612C6.42216 38.9178 6.38546 38.8723 6.35121 38.8251C3.4939 35.2248 1.77527 30.8563 1.41447 26.2767C1.05367 21.6971 2.06708 17.114 4.32544 13.1118C6.5838 9.1097 9.98478 5.86991 14.0946 3.80564C18.2045 1.74137 22.8369 0.946178 27.4012 1.52148C31.9655 2.09679 36.2547 4.01652 39.7219 7.03583C43.1891 10.0552 45.6771 14.0372 46.8686 18.4742C48.0601 22.9112 47.9012 27.602 46.412 31.9484C44.9228 36.2948 42.1709 40.0998 38.5072 42.8781Z" fill="#3F3D56"/>
</svg>
