<svg width="35" height="35" viewBox="0 0 35 35" fill="none" xmlns="http://www.w3.org/2000/svg">
<path d="M13.0151 25.105C19.0812 25.105 24.0151 20.1709 24.0151 14.1059C24.0151 8.03993 19.0803 3.10498 13.0151 3.10498C6.95 3.10498 2.01514 8.03993 2.01514 14.1059C2.01514 20.1709 6.95 25.105 13.0151 25.105ZM13.0151 3.89803C18.644 3.89803 23.2229 8.47791 23.2229 14.1068C23.2229 19.7348 18.644 24.3137 13.0151 24.3137C7.38625 24.3137 2.80742 19.7348 2.80742 14.1068C2.80742 8.47791 7.38625 3.89803 13.0151 3.89803Z" stroke="#142B38"/>
<path d="M5.38938 14.8215C5.49288 14.8215 5.59214 14.7818 5.66533 14.7111C5.73852 14.6403 5.77963 14.5444 5.77963 14.4444C5.77963 10.2042 9.34961 6.75412 13.7374 6.75412C13.8409 6.75412 13.9401 6.71439 14.0133 6.64368C14.0865 6.57297 14.1276 6.47706 14.1276 6.37706C14.1276 6.27706 14.0865 6.18115 14.0133 6.11044C13.9401 6.03973 13.8409 6 13.7374 6C8.91944 6 5 9.78774 5 14.4436C4.99977 14.4931 5.00967 14.5422 5.02913 14.5881C5.0486 14.6339 5.07724 14.6756 5.11342 14.7107C5.1496 14.7458 5.1926 14.7737 5.23996 14.7927C5.28732 14.8117 5.33809 14.8215 5.38938 14.8215ZM32.6108 32C32.6898 31.9998 32.767 31.9764 32.832 31.9329C32.897 31.8894 32.9468 31.8278 32.9747 31.7564C33.0027 31.6849 33.0076 31.607 32.9887 31.5328C32.9698 31.4586 32.928 31.3917 32.8689 31.341L21.2356 21.4449C21.1574 21.3837 21.0578 21.354 20.9575 21.3621C20.8572 21.3702 20.764 21.4154 20.6974 21.4883C20.6308 21.5611 20.5959 21.6561 20.6 21.7532C20.6041 21.8504 20.6469 21.9422 20.7194 22.0096L32.3536 31.9057C32.4244 31.9666 32.516 32.0001 32.6108 32Z" stroke="#142B38"/>
</svg>
