<svg width="78" height="73" viewBox="0 0 78 73" fill="none" xmlns="http://www.w3.org/2000/svg">
<path opacity="0.3" d="M19.7568 57.5446C11.5329 50.6149 6.21964 40.8504 4.87202 30.19C3.5244 19.5296 6.241 8.75297 12.4824 0C11.6627 0.824246 10.8703 1.68748 10.1052 2.58969C6.47475 6.88591 3.72728 11.8541 2.01968 17.2105C0.312078 22.567 -0.32221 28.2069 0.153022 33.8081C0.628255 39.4093 2.20371 44.8623 4.78943 49.8555C7.37514 54.8488 10.9205 59.2846 15.223 62.9098C19.5256 66.5349 24.5011 69.2783 29.8654 70.9834C35.2298 72.6885 40.8779 73.3218 46.4874 72.8473C52.0969 72.3728 57.5579 70.7996 62.5585 68.2177C67.5591 65.6358 72.0015 62.0957 75.632 57.7995C76.3953 56.8961 77.1142 55.971 77.7886 55.024C70.1977 62.6399 60.016 67.1268 49.2654 67.5937C38.5147 68.0607 27.9813 64.4736 19.7568 57.5446Z" fill="black"/>
</svg>
