<svg width="24" height="24" viewBox="0 0 24 24" fill="none" xmlns="http://www.w3.org/2000/svg">
<path d="M12.3101 5.97065L11.7685 5.44528C11.6335 5.31423 11.5038 5.18895 11.3779 5.06738C11.1584 4.85531 10.9506 4.65454 10.7462 4.45419C9.06756 2.80935 6.74555 2.3337 4.87347 3.14201L4.87333 3.14207C2.99878 3.95102 1.7059 6.00345 1.75108 8.29077L1.75108 8.29082C1.78522 10.025 2.51228 11.5543 3.55317 13.0498L3.5534 13.0501C5.84398 16.3448 8.95598 18.8082 12.2531 21.2155C14.665 19.4628 16.9707 17.6516 18.9603 15.4992L19.5111 16.0083L18.9604 15.4992C20.6241 13.6995 22.0108 11.861 22.5781 9.57528L22.5781 9.57509C23.181 7.14869 22.1521 4.6143 20.1774 3.42603L12.3101 5.97065ZM12.3101 5.97065L12.8322 5.42597M12.3101 5.97065L12.8322 5.42597M12.8322 5.42597C12.9716 5.28053 13.0969 5.14467 13.2159 5.01563C13.4488 4.76314 13.6576 4.53676 13.901 4.31569L13.9013 4.31543M12.8322 5.42597L13.9013 4.31543M13.9013 4.31543C15.8064 2.58323 18.2911 2.29168 20.1772 3.42595L13.9013 4.31543Z" stroke="#707070" stroke-width="1.5"/>
</svg>
