<svg width="35" height="35" viewBox="0 0 35 35" fill="none" xmlns="http://www.w3.org/2000/svg">
<g clip-path="url(#clip0_0_172)">
<path d="M28.1323 19.8919H19.9254V28.0988M32.8219 19.8919H35.1667M28.1323 33.9609H18.753M25.7874 26.9264H33.9943V35.1333M7.02882 8.16778H9.37364M25.7874 8.16778H28.1323M7.02882 26.9264H9.37364M3.51158 1.1333H12.8909C13.5128 1.1333 14.1092 1.38034 14.5489 1.82008C14.9887 2.25983 15.2357 2.85624 15.2357 3.47813V12.8574C15.2357 13.4793 14.9887 14.0757 14.5489 14.5155C14.1092 14.9552 13.5128 15.2023 12.8909 15.2023H3.51158C2.88969 15.2023 2.29327 14.9552 1.85353 14.5155C1.41379 14.0757 1.16675 13.4793 1.16675 12.8574V3.47813C1.16675 2.85624 1.41379 2.25983 1.85353 1.82008C2.29327 1.38034 2.88969 1.1333 3.51158 1.1333ZM22.2702 1.1333H31.6495C32.2714 1.1333 32.8678 1.38034 33.3076 1.82008C33.7473 2.25983 33.9943 2.85624 33.9943 3.47813V12.8574C33.9943 13.4793 33.7473 14.0757 33.3076 14.5155C32.8678 14.9552 32.2714 15.2023 31.6495 15.2023H22.2702C21.6483 15.2023 21.0519 14.9552 20.6122 14.5155C20.1724 14.0757 19.9254 13.4793 19.9254 12.8574V3.47813C19.9254 2.85624 20.1724 2.25983 20.6122 1.82008C21.0519 1.38034 21.6483 1.1333 22.2702 1.1333ZM3.51158 19.8919H12.8909C13.5128 19.8919 14.1092 20.139 14.5489 20.5787C14.9887 21.0184 15.2357 21.6149 15.2357 22.2367V31.6161C15.2357 32.2379 14.9887 32.8344 14.5489 33.2741C14.1092 33.7138 13.5128 33.9609 12.8909 33.9609H3.51158C2.88969 33.9609 2.29327 33.7138 1.85353 33.2741C1.41379 32.8344 1.16675 32.2379 1.16675 31.6161V22.2367C1.16675 21.6149 1.41379 21.0184 1.85353 20.5787C2.29327 20.139 2.88969 19.8919 3.51158 19.8919Z" stroke="#142B38" stroke-width="1.5"/>
</g>
<defs>
<clipPath id="clip0_0_172">
<rect width="35" height="35" fill="white"/>
</clipPath>
</defs>
</svg>
