<svg width="31" height="31" viewBox="0 0 31 31" fill="none" xmlns="http://www.w3.org/2000/svg">
<path d="M21.4675 3.86204C21.3175 3.71168 21.1394 3.59238 20.9432 3.51099C20.7471 3.42959 20.5368 3.3877 20.3244 3.3877C20.112 3.3877 19.9017 3.42959 19.7056 3.51099C19.5094 3.59238 19.3313 3.71168 19.1813 3.86204L8.44753 14.5958C8.32778 14.7153 8.23279 14.8572 8.16797 15.0135C8.10315 15.1697 8.06979 15.3372 8.06979 15.5064C8.06979 15.6756 8.10315 15.8431 8.16797 15.9993C8.23279 16.1556 8.32778 16.2975 8.44753 16.417L19.1813 27.1508C19.8142 27.7837 20.8346 27.7837 21.4675 27.1508C22.1004 26.5179 22.1004 25.4975 21.4675 24.8645L12.1159 15.5L21.4804 6.13537C22.1004 5.51537 22.1004 4.48204 21.4675 3.86204Z" fill="#286F8C"/>
</svg>
