<svg width="19" height="14" viewBox="0 0 19 14" fill="none" xmlns="http://www.w3.org/2000/svg">
<path d="M3.73956 7.9087C4.61311 8.94096 6.09145 9.23225 7.45516 9.35167C10.6435 9.52754 13.841 9.26683 16.9585 8.57681C17.1517 10.4464 16.625 12.4622 17.7278 14.0001C18.2447 12.1382 18.5453 10.2231 18.6236 8.29263C18.706 7.46436 18.5976 6.62825 18.307 5.84815C18.1516 5.4572 17.8894 5.11763 17.5504 4.86803C17.2113 4.61843 16.8089 4.46881 16.389 4.43618C17.0177 3.95995 17.7541 3.64558 18.5332 3.52083L15.8538 2.17627L16.5419 1.4709L11.6909 1.17448L13.0959 0.283188C10.9812 -0.006958 8.84186 -0.074387 6.71306 0.0820043C5.71827 0.0824524 4.74236 0.353322 3.89004 0.865565C3.08908 1.43748 2.62627 2.57417 3.1235 3.41385C2.50099 3.51592 1.91487 3.77499 1.42069 4.16653C0.926506 4.55807 0.540615 5.0691 0.299569 5.65123C-0.00525598 6.5765 -0.0788515 7.56218 0.0852045 8.52236C0.267959 10.0629 0.626511 11.5775 1.15388 13.0368L3.73956 7.9087Z" fill="#2F2E41"/>
</svg>
