<svg width="35" height="35" viewBox="0 0 35 35" fill="none" xmlns="http://www.w3.org/2000/svg">
<g clip-path="url(#clip0_0_179)">
<path d="M31.7592 13.7734L31.7616 13.771C31.8888 13.6426 32.0602 13.5677 32.2408 13.5616C32.4214 13.5554 32.5975 13.6186 32.7331 13.7381C32.8687 13.8575 32.9535 14.0243 32.9702 14.2042C32.9862 14.378 32.9376 14.5514 32.8339 14.6913L32.7442 14.7927L28.6364 18.9006C28.6364 18.9006 28.6363 18.9006 28.6363 18.9006C28.5144 19.0225 28.3521 19.0958 28.18 19.1066C28.0144 19.117 27.8506 19.069 27.717 18.9711L27.6184 18.8841L25.5728 16.8385L25.5703 16.836C25.4419 16.7088 25.367 16.5374 25.3609 16.3568C25.3547 16.1762 25.4179 16 25.5373 15.8645C25.6568 15.7289 25.8236 15.6441 26.0035 15.6274C26.1768 15.6114 26.3496 15.6597 26.4893 15.7627L26.5891 15.852L27.6053 16.8681L28.1357 17.3986L28.6661 16.868L31.7592 13.7734ZM23.3333 21.1667C25.0683 21.1667 26.7322 21.856 27.959 23.0828C29.1858 24.3096 29.875 25.9735 29.875 27.7084V29.1667C29.875 29.7414 29.6467 30.2925 29.2404 30.6988C28.8341 31.1051 28.283 31.3334 27.7083 31.3334H7.29167C6.71703 31.3334 6.16593 31.1051 5.7596 30.6988C5.35327 30.2925 5.125 29.7414 5.125 29.1667V27.7084C5.125 25.9735 5.81421 24.3096 7.04101 23.0828C8.26781 21.856 9.93171 21.1667 11.6667 21.1667H23.3333ZM17.5 3.66675C19.235 3.66675 20.8989 4.35596 22.1257 5.58276C23.3525 6.80956 24.0417 8.47346 24.0417 10.2084C24.0417 11.9434 23.3525 13.6073 22.1257 14.8341C20.8989 16.0609 19.235 16.7501 17.5 16.7501C15.765 16.7501 14.1011 16.0609 12.8743 14.8341C11.6475 13.6073 10.9583 11.9434 10.9583 10.2084C10.9583 8.47346 11.6475 6.80956 12.8743 5.58276C14.1011 4.35596 15.765 3.66675 17.5 3.66675Z" stroke="#142B38" stroke-width="1.5"/>
</g>
<defs>
<clipPath id="clip0_0_179">
<rect width="35" height="35" fill="white"/>
</clipPath>
</defs>
</svg>
